<svg xmlns="http://www.w3.org/2000/svg" width="140.96" height="139.304"><g data-name="Group 43" clip-path="url(&quot;#a&quot;)"><path d="M65.184 86.557H50.707c-11.176 0-20.268-9.094-20.268-20.268V60.5h14.477c11.177 0 20.268 9.094 20.268 20.267v5.791ZM36.23 66.29c0 7.983 6.495 14.477 14.477 14.477h8.686c0-7.982-6.494-14.477-14.477-14.477H36.23Z" fill="#fff" fill-rule="evenodd" data-name="Path 133"/><path d="M14.972 86.557H.495v-5.79c0-11.174 9.092-20.268 20.268-20.268H35.24v5.79c0 11.174-9.092 20.268-20.268 20.268m-8.686-5.79h8.686c7.983 0 14.477-6.495 14.477-14.478h-8.686c-7.983 0-14.477 6.495-14.477 14.477" fill="#fff" fill-rule="evenodd" data-name="Path 132"/><path d="M32.84 101.402a2.895 2.895 0 0 1-2.896-2.896V68.128a2.895 2.895 0 1 1 5.791 0v30.378a2.895 2.895 0 0 1-2.895 2.896" fill="#fff" fill-rule="evenodd" data-name="Path 131"/><path d="M54.972 112.37h-43.77a2.373 2.373 0 1 1 0-4.746h43.77a2.373 2.373 0 0 1 0 4.746" fill="#fff" fill-rule="evenodd" data-name="Path 130"/><path d="M51.535 139.303H14.633a2.376 2.376 0 0 1-2.33-1.926l-7.114-37.209a2.385 2.385 0 0 1 .5-1.96 2.39 2.39 0 0 1 1.83-.86h51.133c.707 0 1.375.319 1.827.86.452.547.634 1.266.504 1.96l-7.117 37.21a2.376 2.376 0 0 1-2.33 1.925m-34.942-4.746h32.981l6.208-32.463H10.386l6.208 32.463Z" fill="#fff" fill-rule="evenodd" data-name="Path 129"/><path d="M27.11 46.407h-2.826a2.267 2.267 0 1 1 0-4.534h2.826a2.267 2.267 0 1 1 0 4.534" fill="#fff" fill-rule="evenodd" data-name="Path 128"/><path d="M27.11 23.805h-2.826a2.267 2.267 0 1 1 0-4.534h2.826a2.267 2.267 0 1 1 0 4.534" fill="#fff" fill-rule="evenodd" data-name="Path 127"/><path d="M32.761 49.233a2.27 2.27 0 0 1-2.27-2.268V44.14a2.27 2.27 0 0 1 4.54 0v2.825a2.27 2.27 0 0 1-2.27 2.268" fill="#fff" fill-rule="evenodd" data-name="Path 126"/><path d="M32.761 23.805a2.27 2.27 0 0 1-2.27-2.267v-2.826a2.27 2.27 0 0 1 4.54 0v2.826a2.27 2.27 0 0 1-2.27 2.267" fill="#fff" fill-rule="evenodd" data-name="Path 125"/><path d="M38.413 46.407H27.11a2.267 2.267 0 0 1-2.267-2.267V32.839a2.267 2.267 0 0 1 2.267-2.267h11.303c4.367 0 7.92 3.55 7.92 7.919 0 4.366-3.553 7.916-7.92 7.916m-9.033-4.535h9.033a3.386 3.386 0 0 0 3.382-3.381 3.388 3.388 0 0 0-3.382-3.385H29.38v6.766Z" fill="#fff" fill-rule="evenodd" data-name="Path 124"/><path d="M35.587 35.106H27.11a2.267 2.267 0 0 1-2.267-2.267V21.538a2.267 2.267 0 0 1 2.267-2.267h8.477c4.367 0 7.92 3.55 7.92 7.916 0 4.37-3.553 7.919-7.92 7.919m-6.207-4.534h6.207a3.386 3.386 0 0 0 3.382-3.385 3.388 3.388 0 0 0-3.382-3.382H29.38v6.767Z" fill="#fff" fill-rule="evenodd" data-name="Path 123"/><path d="M32.84 65.678C14.732 65.678 0 50.947 0 32.838 0 14.732 14.732 0 32.84 0c18.107 0 32.84 14.732 32.84 32.84 0 18.108-14.733 32.84-32.84 32.84m0-59.89c-14.915 0-27.05 12.133-27.05 27.05 0 14.914 12.135 27.049 27.05 27.049 14.914 0 27.048-12.135 27.048-27.05 0-14.916-12.134-27.048-27.048-27.048" fill="#fff" fill-rule="evenodd" data-name="Path 122"/><path d="M140.465 86.557h-14.477c-11.177 0-20.268-9.094-20.268-20.268V60.5h14.477c11.176 0 20.268 9.094 20.268 20.267v5.791ZM111.51 66.29c0 7.983 6.494 14.477 14.477 14.477h8.686c0-7.982-6.495-14.477-14.477-14.477h-8.686Z" fill="#fff" fill-rule="evenodd" data-name="Path 121"/><path d="M90.253 86.557H75.776v-5.79c0-11.174 9.091-20.268 20.267-20.268h14.477v5.79c0 11.174-9.091 20.268-20.267 20.268m-8.687-5.79h8.687c7.982 0 14.477-6.495 14.477-14.478h-8.687c-7.982 0-14.477 6.495-14.477 14.477" fill="#fff" fill-rule="evenodd" data-name="Path 120"/><path d="M108.12 101.402a2.895 2.895 0 0 1-2.895-2.896V68.128a2.895 2.895 0 1 1 5.79 0v30.378a2.895 2.895 0 0 1-2.895 2.896" fill="#fff" fill-rule="evenodd" data-name="Path 119"/><path d="M130.253 112.37h-43.77a2.373 2.373 0 1 1 0-4.746h43.77a2.373 2.373 0 0 1 0 4.746" fill="#fff" fill-rule="evenodd" data-name="Path 118"/><path d="M126.816 139.303H89.914a2.376 2.376 0 0 1-2.331-1.926l-7.114-37.209a2.385 2.385 0 0 1 .5-1.96 2.39 2.39 0 0 1 1.83-.86h51.134c.706 0 1.375.319 1.827.86.451.547.634 1.266.503 1.96l-7.117 37.21a2.376 2.376 0 0 1-2.33 1.925m-34.942-4.746h32.982l6.207-32.463H85.666l6.208 32.463Z" fill="#fff" fill-rule="evenodd" data-name="Path 117"/><path d="M102.39 46.407h-2.826a2.267 2.267 0 1 1 0-4.534h2.826a2.267 2.267 0 1 1 0 4.534" fill="#fff" fill-rule="evenodd" data-name="Path 116"/><path d="M102.39 23.805h-2.826a2.267 2.267 0 1 1 0-4.534h2.826a2.267 2.267 0 1 1 0 4.534" fill="#fff" fill-rule="evenodd" data-name="Path 115"/><path d="M108.042 49.233a2.27 2.27 0 0 1-2.27-2.268V44.14a2.27 2.27 0 0 1 4.54 0v2.825a2.27 2.27 0 0 1-2.27 2.268" fill="#fff" fill-rule="evenodd" data-name="Path 114"/><path d="M108.042 23.805a2.27 2.27 0 0 1-2.27-2.267v-2.826a2.27 2.27 0 0 1 4.54 0v2.826a2.27 2.27 0 0 1-2.27 2.267" fill="#fff" fill-rule="evenodd" data-name="Path 113"/><path d="M113.694 46.407H102.39a2.267 2.267 0 0 1-2.267-2.267V32.839a2.267 2.267 0 0 1 2.267-2.267h11.304c4.366 0 7.919 3.55 7.919 7.919 0 4.366-3.553 7.916-7.92 7.916m-9.033-4.535h9.034a3.386 3.386 0 0 0 3.382-3.381 3.388 3.388 0 0 0-3.382-3.385h-9.034v6.766Z" fill="#fff" fill-rule="evenodd" data-name="Path 112"/><path d="M110.868 35.106h-8.478a2.267 2.267 0 0 1-2.267-2.267V21.538a2.267 2.267 0 0 1 2.267-2.267h8.478c4.366 0 7.919 3.55 7.919 7.916 0 4.37-3.553 7.919-7.92 7.919m-6.207-4.534h6.208a3.386 3.386 0 0 0 3.382-3.385 3.388 3.388 0 0 0-3.382-3.382h-6.208v6.767Z" fill="#fff" fill-rule="evenodd" data-name="Path 111"/><path d="M108.12 65.678c-18.108 0-32.84-14.731-32.84-32.84C75.28 14.732 90.012 0 108.12 0c18.108 0 32.84 14.732 32.84 32.84 0 18.108-14.732 32.84-32.84 32.84m0-59.89c-14.914 0-27.049 12.133-27.049 27.05 0 14.914 12.135 27.049 27.05 27.049 14.913 0 27.048-12.135 27.048-27.05 0-14.916-12.135-27.048-27.049-27.048" fill="#fff" fill-rule="evenodd" data-name="Path 110"/><path d="M31.392 69.65c0 21.589 17.5 39.089 39.088 39.089s39.088-17.5 39.088-39.088-17.5-39.088-39.088-39.088-39.088 17.5-39.088 39.088" fill="#1dbcf3" fill-rule="evenodd" data-name="Path 109"/></g><defs><clipPath id="a"><path d="M0 0h140.96v139.3H0V0z" data-name="Rectangle 22"/></clipPath></defs></svg>