<svg xmlns="http://www.w3.org/2000/svg" width="140.96" height="141"><g data-name="Group 41" clip-path="url(&quot;#a&quot;)"><path d="M70.5 28.565a2.519 2.519 0 0 1-2.518-2.518V11.645a2.519 2.519 0 0 1 5.036 0v14.402a2.519 2.519 0 0 1-2.518 2.518" fill="#fff" fill-rule="evenodd" data-name="Path 108"/><path d="M70.5 131.873a2.519 2.519 0 0 1-2.518-2.518v-14.402a2.519 2.519 0 0 1 5.036 0v14.402a2.519 2.519 0 0 1-2.518 2.518" fill="#fff" fill-rule="evenodd" data-name="Path 107"/><path d="M130.045 73.018h-14.402a2.519 2.519 0 0 1 0-5.036h14.402a2.519 2.519 0 0 1 0 5.036" fill="#fff" fill-rule="evenodd" data-name="Path 106"/><path d="M122.252 111.901c-.645 0-1.29-.247-1.78-.738l-5.413-5.413h-13.302a2.519 2.519 0 0 1 0-5.036H116.1c.667 0 1.307.265 1.78.738l6.151 6.151a2.515 2.515 0 0 1 0 3.56 2.511 2.511 0 0 1-1.78.738" fill="#fff" fill-rule="evenodd" data-name="Path 105"/><path d="M116.1 40.744h-14.343a2.519 2.519 0 0 1 0-5.036h13.302l5.413-5.413a2.515 2.515 0 0 1 3.56 0 2.515 2.515 0 0 1 0 3.56l-6.151 6.151a2.511 2.511 0 0 1-1.78.738" fill="#fff" fill-rule="evenodd" data-name="Path 104"/><path d="M26.047 73.018H11.645a2.519 2.519 0 0 1 0-5.036h14.402a2.519 2.519 0 0 1 0 5.036" fill="#fff" fill-rule="evenodd" data-name="Path 103"/><path d="M19.438 111.901c-.645 0-1.29-.247-1.78-.738a2.515 2.515 0 0 1 0-3.56l6.15-6.151a2.516 2.516 0 0 1 1.781-.738h14.344a2.517 2.517 0 1 1 0 5.036H26.631l-5.413 5.413a2.511 2.511 0 0 1-1.78.738" fill="#fff" fill-rule="evenodd" data-name="Path 102"/><path d="M39.933 40.744H25.59a2.516 2.516 0 0 1-1.78-.738l-6.151-6.15a2.515 2.515 0 0 1 0-3.561 2.515 2.515 0 0 1 3.56 0l5.413 5.413h13.302a2.519 2.519 0 0 1 0 5.036" fill="#fff" fill-rule="evenodd" data-name="Path 101"/><path d="M125.03 120.094c-3.906 0-7.083-3.175-7.083-7.08 0-3.905 3.177-7.083 7.082-7.083s7.083 3.178 7.083 7.083c0 3.905-3.178 7.08-7.083 7.08m0-9.127a2.05 2.05 0 0 0-2.047 2.047 2.048 2.048 0 0 0 4.094 0 2.05 2.05 0 0 0-2.047-2.047" fill="#fff" fill-rule="evenodd" data-name="Path 100"/><path d="M16.21 120.326c-3.905 0-7.083-3.175-7.083-7.08 0-3.906 3.178-7.083 7.083-7.083 3.905 0 7.083 3.177 7.083 7.083 0 3.905-3.178 7.08-7.083 7.08m0-9.127a2.05 2.05 0 0 0-2.047 2.047 2.048 2.048 0 0 0 4.094 0 2.05 2.05 0 0 0-2.047-2.047" fill="#fff" fill-rule="evenodd" data-name="Path 99"/><path d="M70.5 141a7.09 7.09 0 0 1-7.083-7.083c0-3.902 3.178-7.08 7.083-7.08 3.905 0 7.083 3.178 7.083 7.08A7.09 7.09 0 0 1 70.5 141m0-9.127a2.048 2.048 0 0 0-2.047 2.044c0 1.13.919 2.047 2.047 2.047a2.049 2.049 0 0 0 2.047-2.047 2.048 2.048 0 0 0-2.047-2.044" fill="#fff" fill-rule="evenodd" data-name="Path 98"/><path d="M70.5 14.163c-3.905 0-7.083-3.175-7.083-7.08C63.417 3.178 66.595 0 70.5 0c3.905 0 7.083 3.178 7.083 7.083 0 3.905-3.178 7.08-7.083 7.08m0-9.127a2.05 2.05 0 0 0-2.047 2.047 2.048 2.048 0 0 0 4.094 0A2.05 2.05 0 0 0 70.5 5.036" fill="#fff" fill-rule="evenodd" data-name="Path 97"/><path d="M125.17 35.597a7.09 7.09 0 0 1-7.082-7.082c0-3.903 3.177-7.08 7.082-7.08s7.083 3.177 7.083 7.08a7.09 7.09 0 0 1-7.083 7.082m0-9.127a2.048 2.048 0 0 0-2.047 2.045c0 1.13.92 2.047 2.047 2.047a2.049 2.049 0 0 0 2.047-2.047 2.048 2.048 0 0 0-2.047-2.045" fill="#fff" fill-rule="evenodd" data-name="Path 96"/><path d="M16.21 35.927c-3.905 0-7.083-3.175-7.083-7.08 0-3.905 3.178-7.083 7.083-7.083 3.905 0 7.083 3.178 7.083 7.083 0 3.905-3.178 7.08-7.083 7.08m0-9.127a2.05 2.05 0 0 0-2.047 2.047 2.048 2.048 0 0 0 4.094 0A2.05 2.05 0 0 0 16.21 26.8" fill="#fff" fill-rule="evenodd" data-name="Path 95"/><path d="M7.083 77.583C3.178 77.583 0 74.405 0 70.5c0-3.905 3.178-7.083 7.083-7.083 3.905 0 7.082 3.178 7.082 7.083 0 3.905-3.177 7.083-7.082 7.083m0-9.13A2.05 2.05 0 0 0 5.036 70.5a2.05 2.05 0 0 0 2.047 2.047 2.048 2.048 0 0 0 0-4.094" fill="#fff" fill-rule="evenodd" data-name="Path 94"/><path d="M133.877 77.583c-3.905 0-7.083-3.178-7.083-7.083 0-3.905 3.178-7.083 7.083-7.083 3.905 0 7.083 3.178 7.083 7.083 0 3.905-3.178 7.083-7.083 7.083m0-9.13a2.048 2.048 0 0 0 0 4.094 2.05 2.05 0 0 0 2.047-2.047 2.05 2.05 0 0 0-2.047-2.047" fill="#fff" fill-rule="evenodd" data-name="Path 93"/><path d="M44.264 46.782c-.655 0-1.31-.252-1.763-.73a2.516 2.516 0 0 1-.755-1.788c0-.655.277-1.31.755-1.763.932-.931 2.619-.931 3.55 0 .479.454.73 1.108.73 1.763a2.492 2.492 0 0 1-2.517 2.518" fill="#fff" fill-rule="evenodd" data-name="Path 92"/><path d="M33.412 73.018c-.327 0-.655-.076-.957-.202a2.35 2.35 0 0 1-.83-.528 2.648 2.648 0 0 1-.73-1.788c0-.655.276-1.31.73-1.788a2.35 2.35 0 0 1 .83-.528c.907-.403 2.04-.177 2.745.528.453.479.73 1.133.73 1.788s-.277 1.31-.73 1.788a2.648 2.648 0 0 1-1.788.73" fill="#fff" fill-rule="evenodd" data-name="Path 91"/><path d="M44.264 99.254c-.327 0-.655-.076-.957-.201a2.202 2.202 0 0 1-.806-.554 2.459 2.459 0 0 1-.755-1.763c0-.68.277-1.334.755-1.788.227-.226.504-.428.806-.554a2.57 2.57 0 0 1 2.745.554c.478.454.73 1.108.73 1.788 0 .655-.252 1.31-.73 1.763a2.516 2.516 0 0 1-1.788.755" fill="#fff" fill-rule="evenodd" data-name="Path 90"/><path d="M70.5 110.106c-.327 0-.655-.05-.957-.202a2.908 2.908 0 0 1-.83-.528 2.35 2.35 0 0 1-.53-.831 2.506 2.506 0 0 1-.2-.957c0-.327.075-.655.2-.957.126-.302.303-.579.53-.83a2.6 2.6 0 0 1 .83-.53 2.518 2.518 0 0 1 1.914 0 2.6 2.6 0 0 1 .83.53c.227.251.404.528.53.83.15.302.2.63.2.957 0 .327-.05.655-.2.957a2.6 2.6 0 0 1-.53.83 2.908 2.908 0 0 1-.83.53c-.302.15-.63.2-.957.2" fill="#fff" fill-rule="evenodd" data-name="Path 89"/><path d="M96.736 99.254c-.176 0-.327-.025-.504-.05-.15-.05-.327-.076-.478-.151-.151-.076-.277-.152-.428-.227-.126-.1-.252-.202-.378-.327-.478-.454-.73-1.108-.73-1.763 0-.68.252-1.334.73-1.788.126-.126.252-.226.378-.327.151-.075.277-.151.428-.227.151-.05.327-.1.478-.125.831-.177 1.687.1 2.267.68.478.453.755 1.107.755 1.787 0 .655-.277 1.31-.755 1.763a2.459 2.459 0 0 1-1.763.755" fill="#fff" fill-rule="evenodd" data-name="Path 88"/><path d="M107.588 73.018c-.655 0-1.31-.277-1.788-.73a2.648 2.648 0 0 1-.73-1.788c0-.655.277-1.31.73-1.788.932-.931 2.619-.931 3.576 0 .453.479.73 1.133.73 1.788s-.277 1.31-.73 1.788a2.648 2.648 0 0 1-1.788.73" fill="#fff" fill-rule="evenodd" data-name="Path 87"/><path d="M96.736 46.782a2.492 2.492 0 0 1-2.518-2.518c0-.655.252-1.31.73-1.763.932-.931 2.619-.931 3.55 0 .479.454.756 1.108.756 1.763 0 .68-.277 1.31-.755 1.788-.454.478-1.108.73-1.763.73" fill="#fff" fill-rule="evenodd" data-name="Path 86"/><path d="M70.5 35.93c-.655 0-1.31-.277-1.788-.73a2.648 2.648 0 0 1-.73-1.788c0-.655.277-1.31.73-1.788.957-.931 2.619-.931 3.576 0 .453.479.73 1.133.73 1.788s-.277 1.31-.73 1.788a2.648 2.648 0 0 1-1.788.73" fill="#fff" fill-rule="evenodd" data-name="Path 85"/><path d="M70.5 117.47c-25.899 0-46.97-21.071-46.97-46.97 0-25.899 21.071-46.97 46.97-46.97 25.899 0 46.97 21.071 46.97 46.97 0 25.899-21.071 46.97-46.97 46.97m0-88.905c-23.124 0-41.935 18.811-41.935 41.935 0 23.121 18.811 41.935 41.935 41.935 23.124 0 41.935-18.814 41.935-41.935 0-23.124-18.811-41.935-41.935-41.935" fill="#fff" fill-rule="evenodd" data-name="Path 84"/><path d="M70.5 103.046c-17.945 0-32.546-14.601-32.546-32.546 0-17.947 14.601-32.546 32.546-32.546s32.546 14.599 32.546 32.546c0 17.945-14.601 32.546-32.546 32.546m0-60.056c-15.168 0-27.51 12.34-27.51 27.51 0 15.168 12.342 27.51 27.51 27.51 15.168 0 27.51-12.342 27.51-27.51 0-15.17-12.342-27.51-27.51-27.51" fill="#fff" fill-rule="evenodd" data-name="Path 83"/><path d="M66.058 72.832h-3.164a2.519 2.519 0 0 1 0-5.036h3.164a2.519 2.519 0 0 1 0 5.036" fill="#fff" fill-rule="evenodd" data-name="Path 82"/><path d="M70.354 92.478a2.519 2.519 0 0 1-2.518-2.517v-2.858a2.517 2.517 0 1 1 5.036 0v2.858a2.519 2.519 0 0 1-2.518 2.517" fill="#fff" fill-rule="evenodd" data-name="Path 81"/><path d="M70.354 57.654a2.519 2.519 0 0 1-2.518-2.518v-4.097a2.519 2.519 0 0 1 5.036 0v4.097a2.519 2.519 0 0 1-2.518 2.518" fill="#fff" fill-rule="evenodd" data-name="Path 80"/><path d="M62.894 88.382a2.519 2.519 0 0 1-2.518-2.518V55.136a2.519 2.519 0 0 1 5.035 0v30.728a2.519 2.519 0 0 1-2.517 2.518" fill="#fff" fill-rule="evenodd" data-name="Path 79"/><path d="M74.793 88.382h-14.38a2.519 2.519 0 0 1 0-5.036h14.38a5.264 5.264 0 0 0 5.257-5.257 5.264 5.264 0 0 0-5.257-5.257h-8.735a2.519 2.519 0 0 1 0-5.036h5.432a5.077 5.077 0 0 0 5.07-5.071 5.075 5.075 0 0 0-5.07-5.071H60.413a2.519 2.519 0 0 1 0-5.036H71.49c5.574 0 10.106 4.535 10.106 10.107a10.05 10.05 0 0 1-2.127 6.196c3.33 1.705 5.617 5.174 5.617 9.168 0 5.675-4.618 10.293-10.293 10.293" fill="#fff" fill-rule="evenodd" data-name="Path 78"/><path d="M71.21 95.58c0 18.774 15.218 33.991 33.991 33.991s33.991-15.217 33.991-33.99c0-18.774-15.218-33.992-33.99-33.992-18.774 0-33.992 15.218-33.992 33.991" fill="#1dbcf3" fill-rule="evenodd" data-name="Path 77"/></g><defs><clipPath id="a"><path d="M0 0h140.96v141H0V0z" data-name="Rectangle 21"/></clipPath></defs></svg>