<svg xmlns="http://www.w3.org/2000/svg" width="141.049" height="141.049" viewBox="576 2105.951 141.049 141.049"><g data-name="Group 36"><g data-name="Group 35" transform="translate(576 2105.951)" clip-path="url(&quot;#a&quot;)"><path d="M55.754 123.19c-.415 0-.836-.103-1.224-.32l-24.592-13.727a2.514 2.514 0 0 1-.973-3.425 2.509 2.509 0 0 1 3.426-.972l24.593 13.727a2.514 2.514 0 0 1 .972 3.425 2.517 2.517 0 0 1-2.202 1.292" fill="#fff" fill-rule="evenodd" data-name="Path 76"/><path d="M85.211 123.115a2.519 2.519 0 0 1-1.222-4.723l24.669-13.651a2.517 2.517 0 0 1 3.423.984 2.517 2.517 0 0 1-.983 3.423L86.428 122.8a2.497 2.497 0 0 1-1.217.315" fill="#fff" fill-rule="evenodd" data-name="Path 75"/><path d="M31.998 97.121a2.517 2.517 0 0 1-1.222-4.723l25.097-13.877a2.518 2.518 0 1 1 2.438 4.407L33.214 96.807a2.497 2.497 0 0 1-1.216.314" fill="#fff" fill-rule="evenodd" data-name="Path 74"/><path d="M109.07 97.147c-.41 0-.825-.101-1.208-.313L82.586 82.96a2.519 2.519 0 0 1 2.426-4.416l25.273 13.879a2.513 2.513 0 0 1 .995 3.417 2.514 2.514 0 0 1-2.21 1.308" fill="#fff" fill-rule="evenodd" data-name="Path 73"/><path d="M31.998 45.11a2.519 2.519 0 0 1-1.222-4.723L54.613 27.19a2.519 2.519 0 1 1 2.439 4.408L33.214 44.795a2.497 2.497 0 0 1-1.216.315" fill="#fff" fill-rule="evenodd" data-name="Path 72"/><path d="M109.07 45.135c-.41 0-.825-.1-1.208-.312L84.098 31.778a2.519 2.519 0 0 1-.995-3.42 2.513 2.513 0 0 1 3.42-.995l23.762 13.047a2.513 2.513 0 0 1 .995 3.418 2.511 2.511 0 0 1-2.21 1.307" fill="#fff" fill-rule="evenodd" data-name="Path 71"/><path d="M55.754 71.153c-.415 0-.836-.103-1.224-.317L28.504 56.328a2.52 2.52 0 1 1 2.451-4.4l26.029 14.505a2.522 2.522 0 0 1 .974 3.428 2.524 2.524 0 0 1-2.204 1.292" fill="#fff" fill-rule="evenodd" data-name="Path 70"/><path d="M85.211 71.103a2.519 2.519 0 0 1-1.222-4.723l26.102-14.457a2.521 2.521 0 0 1 3.425.985 2.518 2.518 0 0 1-.984 3.423L86.427 70.788a2.497 2.497 0 0 1-1.216.315" fill="#fff" fill-rule="evenodd" data-name="Path 69"/><path d="M17.19 81.929a2.52 2.52 0 0 1-2.518-2.52V42.1a2.52 2.52 0 0 1 5.037 0v37.31a2.52 2.52 0 0 1-2.519 2.519" fill="#fff" fill-rule="evenodd" data-name="Path 68"/><path d="M17.19 63.567c-.423 0-.846-.106-1.226-.32L1.292 55.06A2.526 2.526 0 0 1 0 52.857V33.912a2.516 2.516 0 0 1 2.519-2.52 2.516 2.516 0 0 1 2.518 2.52v17.47l12.158 6.787 12.274-6.795V33.912a2.515 2.515 0 0 1 2.519-2.52 2.516 2.516 0 0 1 2.519 2.52v18.945c0 .92-.5 1.764-1.3 2.204l-14.798 8.191c-.38.21-.798.315-1.219.315" fill="#fff" fill-rule="evenodd" data-name="Path 67"/><path d="M17.19 44.619c-.423 0-.846-.106-1.226-.32L1.292 36.108A2.514 2.514 0 0 1 0 33.904c0-.914.499-1.756 1.3-2.199l14.671-8.123a2.512 2.512 0 0 1 2.43-.002L33.2 31.703a2.52 2.52 0 0 1 1.308 2.201c0 .92-.497 1.763-1.3 2.209l-14.798 8.19a2.492 2.492 0 0 1-1.219.316m-9.488-10.7 9.493 5.3 9.574-5.3-9.574-5.254-9.493 5.254Z" fill="#fff" fill-rule="evenodd" data-name="Path 66"/><path d="M17.19 117.19a2.52 2.52 0 0 1-2.518-2.518V95.724a2.518 2.518 0 1 1 5.037 0v18.948a2.52 2.52 0 0 1-2.519 2.519" fill="#fff" fill-rule="evenodd" data-name="Path 65"/><path d="M17.19 117.19c-.423 0-.846-.105-1.226-.32l-14.672-8.19A2.519 2.519 0 0 1 0 106.48V87.533a2.518 2.518 0 1 1 5.037 0v17.47l12.158 6.788 12.274-6.793V87.533a2.518 2.518 0 1 1 5.037 0v18.948a2.52 2.52 0 0 1-1.3 2.204l-14.797 8.19c-.38.21-.798.316-1.219.316" fill="#fff" fill-rule="evenodd" data-name="Path 64"/><path d="M17.19 98.24c-.423 0-.846-.106-1.226-.32L1.292 89.729A2.513 2.513 0 0 1 0 87.525c0-.914.499-1.755 1.3-2.199l14.671-8.123a2.512 2.512 0 0 1 2.43-.002L33.2 85.324a2.52 2.52 0 0 1 1.308 2.201c0 .92-.497 1.763-1.3 2.21l-14.798 8.19a2.492 2.492 0 0 1-1.219.315m-9.488-10.7 9.493 5.3 9.574-5.3-9.574-5.254-9.493 5.254Z" fill="#fff" fill-rule="evenodd" data-name="Path 63"/><path d="M123.732 81.929a2.52 2.52 0 0 1-2.518-2.52V42.1a2.52 2.52 0 0 1 5.037 0v37.31a2.52 2.52 0 0 1-2.519 2.519" fill="#fff" fill-rule="evenodd" data-name="Path 62"/><path d="M123.732 63.567c-.423 0-.846-.106-1.226-.32l-14.672-8.188a2.53 2.53 0 0 1-1.292-2.202V33.912a2.516 2.516 0 0 1 2.519-2.52 2.515 2.515 0 0 1 2.518 2.52v17.47l12.158 6.787 12.274-6.795V33.912a2.516 2.516 0 0 1 2.519-2.52 2.516 2.516 0 0 1 2.519 2.52v18.945c0 .92-.497 1.764-1.3 2.204l-14.798 8.191c-.38.21-.798.315-1.219.315" fill="#fff" fill-rule="evenodd" data-name="Path 61"/><path d="M123.732 44.619c-.423 0-.846-.106-1.229-.32l-14.669-8.191a2.513 2.513 0 0 1-1.292-2.204c0-.914.499-1.756 1.3-2.199l14.669-8.123a2.517 2.517 0 0 1 2.433-.002l14.797 8.123a2.52 2.52 0 0 1 1.308 2.201c0 .92-.497 1.763-1.3 2.209l-14.798 8.19c-.38.212-.798.316-1.219.316m-9.488-10.7 9.493 5.3 9.574-5.3-9.574-5.254-9.493 5.254Z" fill="#fff" fill-rule="evenodd" data-name="Path 60"/><path d="M123.732 117.19a2.52 2.52 0 0 1-2.518-2.518V95.724a2.518 2.518 0 1 1 5.037 0v18.948a2.52 2.52 0 0 1-2.519 2.519" fill="#fff" fill-rule="evenodd" data-name="Path 59"/><path d="M123.732 117.19c-.423 0-.846-.105-1.226-.32l-14.672-8.19a2.524 2.524 0 0 1-1.292-2.199V87.533a2.518 2.518 0 1 1 5.037 0v17.47l12.158 6.788 12.274-6.793V87.533a2.518 2.518 0 1 1 5.038 0v18.948c0 .917-.497 1.76-1.3 2.204l-14.798 8.19c-.38.21-.798.316-1.219.316" fill="#fff" fill-rule="evenodd" data-name="Path 58"/><path d="M123.732 98.24c-.423 0-.846-.106-1.229-.32l-14.669-8.191a2.513 2.513 0 0 1-1.292-2.204c0-.914.499-1.755 1.3-2.199l14.669-8.123a2.517 2.517 0 0 1 2.433-.002l14.797 8.123a2.52 2.52 0 0 1 1.308 2.201c0 .92-.497 1.763-1.3 2.21l-14.798 8.19c-.38.212-.798.315-1.219.315m-9.488-10.7 9.493 5.3 9.574-5.3-9.574-5.254-9.493 5.254Z" fill="#fff" fill-rule="evenodd" data-name="Path 57"/><path d="M70.421 141.048a2.52 2.52 0 0 1-2.519-2.519v-18.948a2.518 2.518 0 1 1 5.038 0v18.948a2.52 2.52 0 0 1-2.519 2.519" fill="#fff" fill-rule="evenodd" data-name="Path 56"/><path d="M70.421 141.048c-.423 0-.846-.106-1.227-.32l-14.671-8.19a2.519 2.519 0 0 1-1.292-2.2V111.39a2.518 2.518 0 1 1 5.037 0v17.47l12.158 6.788 12.274-6.793V111.39a2.518 2.518 0 1 1 5.037 0v18.948a2.52 2.52 0 0 1-1.3 2.204l-14.797 8.191c-.38.21-.798.315-1.219.315" fill="#fff" fill-rule="evenodd" data-name="Path 55"/><path d="M70.421 122.1c-.423 0-.846-.106-1.227-.32l-14.671-8.191a2.513 2.513 0 0 1-1.292-2.204c0-.914.498-1.756 1.3-2.199l14.67-8.123a2.512 2.512 0 0 1 2.432-.002l14.797 8.123a2.52 2.52 0 0 1 1.307 2.201c0 .92-.496 1.763-1.3 2.209l-14.797 8.19a2.492 2.492 0 0 1-1.219.316m-9.488-10.7 9.493 5.3L80 111.4l-9.574-5.254-9.493 5.254Z" fill="#fff" fill-rule="evenodd" data-name="Path 54"/><path d="M70.434 90.674a2.52 2.52 0 0 1-2.52-2.52v-18.94a2.52 2.52 0 0 1 5.038 0v18.94a2.52 2.52 0 0 1-2.518 2.52" fill="#fff" fill-rule="evenodd" data-name="Path 53"/><path d="M70.434 90.674c-.421 0-.844-.106-1.227-.318l-14.69-8.196a2.516 2.516 0 0 1-1.279-2.191V61.003a2.52 2.52 0 0 1 5.038 0l.058 17.53 12.102 6.74 12.254-6.788V61.003a2.52 2.52 0 0 1 5.037 0v18.966c0 .917-.496 1.76-1.297 2.204l-14.777 8.186a2.52 2.52 0 0 1-1.22.315" fill="#fff" fill-rule="evenodd" data-name="Path 52"/><path d="M70.434 71.733c-.424 0-.847-.109-1.23-.323L54.528 63.2a2.516 2.516 0 0 1-1.29-2.205 2.525 2.525 0 0 1 1.3-2.198l14.677-8.11a2.525 2.525 0 0 1 2.43-.003l14.775 8.11a2.52 2.52 0 0 1 .013 4.41l-14.775 8.211c-.38.212-.801.318-1.224.318M60.94 61.016l9.498 5.314 9.56-5.314-9.56-5.247-9.498 5.247Z" fill="#fff" fill-rule="evenodd" data-name="Path 51"/><path d="M70.514 40.3a2.52 2.52 0 0 1-2.519-2.52V18.832a2.518 2.518 0 1 1 5.038 0V37.78a2.52 2.52 0 0 1-2.519 2.52" fill="#fff" fill-rule="evenodd" data-name="Path 50"/><path d="M70.514 40.3c-.423 0-.846-.107-1.226-.32l-14.672-8.192a2.519 2.519 0 0 1-1.292-2.199V10.641a2.518 2.518 0 1 1 5.037 0v17.47l12.158 6.788 12.274-6.793V10.64a2.518 2.518 0 1 1 5.037 0V29.59a2.52 2.52 0 0 1-1.3 2.204l-14.797 8.191c-.38.21-.798.315-1.219.315" fill="#fff" fill-rule="evenodd" data-name="Path 49"/><path d="M70.512 21.35c-.423 0-.844-.105-1.227-.32l-14.669-8.19a2.516 2.516 0 0 1 .005-4.403L69.293.314a2.512 2.512 0 0 1 2.43-.002l14.798 8.123a2.517 2.517 0 0 1 .008 4.41l-14.798 8.19a2.478 2.478 0 0 1-1.22.316m-9.485-10.7 9.49 5.3 9.577-5.3-9.576-5.254-9.49 5.254Z" fill="#fff" fill-rule="evenodd" data-name="Path 48"/><path d="M36.521 70.524c0 18.78 15.224 34.003 34.003 34.003 18.78 0 34.003-15.224 34.003-34.003 0-18.78-15.223-34.003-34.003-34.003S36.521 51.744 36.521 70.524" fill="#1dbcf3" fill-rule="evenodd" data-name="Path 47"/></g></g><defs><clipPath id="a"><path d="M0 0h141v141H0V0z" data-name="Rectangle 20" transform="translate(0 .049)"/></clipPath></defs></svg>